<?xml version="1.0" encoding="UTF-8"?>
<svg id="Layer_1" xmlns="http://www.w3.org/2000/svg" version="1.1" viewBox="0 0 40 40">
  <!-- Generator: Adobe Illustrator 29.6.1, SVG Export Plug-In . SVG Version: 2.1.1 Build 9)  -->
  <defs>
    <style>
      .st0 {
        fill: #d1d1d1;
      }
    </style>
  </defs>
  <path d="M30,19.03c-.04-.35-.27-.66-.62-.8-.36-.13-.71,0-.93.27-1.16,1.28-2.76,2.04-4.49,2.04-3.29,0-6-2.7-6-5.97,0-1.06.31-2.12.84-3.05.18-.31.18-.66-.04-.97-.22-.27-.58-.44-.93-.35-4.53,1.02-7.82,5.09-7.82,9.73,0,5.49,4.49,9.96,10,9.96s10-4.47,10-9.96v-.89ZM20,28.1c-4.53,0-8.22-3.67-8.22-8.19,0-3.19,1.87-6.02,4.67-7.39-.18.66-.27,1.33-.27,2.04,0,4.29,3.47,7.74,7.78,7.74,1.51,0,2.98-.44,4.22-1.24-.58,3.94-4.04,7.04-8.18,7.04Z"/>
  <path class="st0" d="M33.64,20c0-7.48-6.13-13.58-13.64-13.58s-13.64,6.11-13.64,13.58,6.13,13.58,13.64,13.58,13.64-6.11,13.64-13.58ZM20,31.81c-6.53,0-11.87-5.31-11.87-11.81s5.33-11.81,11.87-11.81,11.87,5.31,11.87,11.81-5.33,11.81-11.87,11.81ZM20.98,0h-1.78v4.73h1.78V0ZM20.98,35.27h-1.78v4.73h1.78v-4.73ZM4.76,19.11H0v1.77h4.76v-1.77ZM8.63,30.16l-3.36,3.35,1.26,1.25,3.36-3.35-1.26-1.25ZM6.52,5.24l-1.26,1.25,3.36,3.35,1.26-1.25-3.36-3.35ZM40,19.11h-4.76v1.77h4.76v-1.77ZM31.41,30.19l-1.26,1.25,3.36,3.35,1.26-1.25-3.36-3.35ZM33.51,5.21l-3.36,3.35,1.26,1.25,3.36-3.35-1.26-1.25Z"/>
</svg>